<?xml version="1.0" standalone="no"?><!DOCTYPE svg PUBLIC "-//W3C//DTD SVG 1.1//EN"
  "http://www.w3.org/Graphics/SVG/1.1/DTD/svg11.dtd">
<svg t="1551335432941" class="icon" style="" viewBox="0 0 1024 1024" version="1.1" xmlns="http://www.w3.org/2000/svg"
     p-id="6382"
     width="260" height="260">
  <defs>
    <style type="text/css"></style>
  </defs>
  <path
    d="M991.67 689.448v-472.296c0-101.81-82.623-184.433-184.493-184.433h-590.414c-101.81 0-184.433 82.623-184.433 184.433v590.414c0 101.81 82.563 184.433 184.433 184.433h590.414c90.717 0 166.206-65.595 181.615-151.876-48.926-21.165-260.941-112.722-371.385-165.427-84.062 101.81-172.082 162.908-304.771 162.908s-221.248-81.724-210.636-181.735c7.015-65.655 52.044-172.981 247.629-154.574 103.069 9.653 150.257 28.9 234.319 56.661 21.765-39.873 39.813-83.763 53.543-130.47h-372.764v-36.935h184.433v-66.314h-224.965v-40.652h224.965v-95.694c0 0 2.039-14.99 18.587-14.99h92.216v110.684h239.835v40.652h-239.835v66.314h195.646c-17.988 73.209-45.269 140.483-79.446 199.243 56.841 20.566 315.503 99.652 315.503 99.652v0 0zM297.947 774.29c-140.183 0-162.368-88.499-154.933-125.494 7.375-36.815 47.967-84.842 125.914-84.842 89.578 0 169.803 22.904 266.097 69.792-67.633 88.079-150.736 140.543-237.077 140.543v0z"
    p-id="6383"></path>
</svg>
