<?xml version="1.0" standalone="no"?><!DOCTYPE svg PUBLIC "-//W3C//DTD SVG 1.1//EN"
  "http://www.w3.org/Graphics/SVG/1.1/DTD/svg11.dtd">
<svg t="1550563783078" class="icon" style="" viewBox="0 0 1030 1024" version="1.1" xmlns="http://www.w3.org/2000/svg"
     p-id="3211"
     width="128.75" height="128">
  <defs>
    <style type="text/css"></style>
  </defs>
  <path
    d="M197.632 745.472c77.824 73.728 163.84 132.096 230.4 165.888 39.936 20.48 71.68 30.72 91.136 30.72 49.152 0 196.608-76.8 320.512-195.584 81.92-78.848 154.624-176.128 180.224-280.576 24.576-100.352 2.048-206.848-72.704-280.576-51.2-51.2-121.856-81.92-199.68-81.92-95.232 0-178.176 46.08-229.376 116.736-34.816-48.128-84.992-84.992-143.36-104.448-101.376-31.744-212.992-5.12-286.72 68.608-74.752 73.728-97.28 180.224-71.68 280.576C41.984 568.32 114.688 665.6 197.632 745.472z"
    fill="#F44444" p-id="3212"></path>
  <path
    d="M1030.144 382.976c0-41.984-9.216-80.896-26.624-116.736-89.088 294.912-483.328 533.504-577.536 533.504-55.296 0-217.088-83.968-358.4-214.016C189.44 789.504 449.536 942.08 518.144 942.08c91.136 0 512-261.12 512-559.104z"
    fill="#E82D2D" p-id="3213"></path>
</svg>
