<?xml version="1.0" standalone="no"?><!DOCTYPE svg PUBLIC "-//W3C//DTD SVG 1.1//EN"
  "http://www.w3.org/Graphics/SVG/1.1/DTD/svg11.dtd">
<svg t="1551337823753" class="icon" style="" viewBox="0 0 1024 1024" version="1.1" xmlns="http://www.w3.org/2000/svg"
     p-id="7129"
     width="260" height="260">
  <defs>
    <style type="text/css"></style>
  </defs>
  <path
    d="M1024 636.032c0-141.888-141.866667-257.429333-301.461333-257.429333-169.088 0-301.866667 115.541333-301.866667 257.429333 0 142.250667 132.778667 257.386667 301.866667 257.386667 35.370667 0 71.146667-9.024 106.496-17.642667l97.450667 53.418667-26.666667-88.789333C970.922667 786.965333 1024 715.84 1024 636.032zM624.618667 591.616c-17.642667 0-35.328-17.664-35.328-35.392 0-17.621333 17.685333-35.328 35.328-35.328 26.752 0 44.458667 17.706667 44.458667 35.328C669.077333 573.952 651.370667 591.616 624.618667 591.616zM820.010667 591.616c-17.664 0-35.306667-17.664-35.306667-35.392 0-17.621333 17.642667-35.328 35.306667-35.328 26.709333 0 44.416 17.706667 44.416 35.328C864.426667 573.952 846.293333 591.616 820.010667 591.616z"
    p-id="7130"></path>
  <path
    d="M693.248 347.242667c11.626667 0 23.296 0.810667 34.901333 2.005333-31.274667-146.133333-187.392-254.464-365.674667-254.464C163.370667 94.784 0 230.442667 0 403.029333c0 99.562667 54.208 181.418667 144.917333 244.864L108.8 757.034667l126.826667-63.786667c45.354667 8.810667 81.877333 18.069333 126.848 18.069333 11.221333 0 22.506667-0.405333 33.749333-1.557333-7.232-24.128-11.242667-49.749333-11.242667-75.882667C384.96 475.690667 521.066667 347.242667 693.248 347.242667zM498.133333 248.896c27.285333 0 45.333333 18.069333 45.333333 45.376 0 27.264-18.069333 45.333333-45.333333 45.333333-27.306667 0-54.570667-18.069333-54.570667-45.333333C443.968 266.944 471.210667 248.896 498.133333 248.896zM244.458667 339.562667c-27.306667 0-54.570667-18.048-54.570667-45.333333 0-27.306667 27.285333-45.354667 54.570667-45.354667 27.328 0 45.397333 18.069333 45.397333 45.354667C289.834667 321.130667 271.786667 339.562667 244.458667 339.562667z"
    p-id="7131"></path>
</svg>
